<svg width="87" height="71" viewBox="0 0 87 71" fill="none" xmlns="http://www.w3.org/2000/svg">
<rect x="34" width="20" height="36" rx="10" fill="#D9D9D9"/>
<path d="M44 46L35 36L44.0001 41.6522L53 36L44 46Z" fill="#D9D9D9"/>
<path d="M3.355 68.044C2.79033 68.044 2.255 67.945 1.749 67.747C1.25033 67.5417 0.869 67.285 0.605 66.977L0.803 66.713C1.05233 66.9917 1.40433 67.23 1.859 67.428C2.321 67.6187 2.816 67.714 3.344 67.714C3.87933 67.714 4.31933 67.6407 4.664 67.494C5.00867 67.3473 5.26167 67.153 5.423 66.911C5.59167 66.6617 5.676 66.3867 5.676 66.086C5.676 65.734 5.588 65.4517 5.412 65.239C5.236 65.0263 5.00133 64.8577 4.708 64.733C4.422 64.6083 4.10667 64.5057 3.762 64.425C3.42467 64.3443 3.08 64.26 2.728 64.172C2.38333 64.0767 2.06433 63.9593 1.771 63.82C1.485 63.6733 1.254 63.4753 1.078 63.226C0.909333 62.9693 0.825 62.6393 0.825 62.236C0.825 61.8913 0.916667 61.5687 1.1 61.268C1.28333 60.9673 1.56933 60.7253 1.958 60.542C2.34667 60.3513 2.84533 60.256 3.454 60.256C3.872 60.256 4.28267 60.322 4.686 60.454C5.09667 60.5787 5.445 60.7473 5.731 60.96L5.566 61.257C5.258 61.0297 4.917 60.861 4.543 60.751C4.169 60.641 3.80967 60.586 3.465 60.586C2.95167 60.586 2.52267 60.663 2.178 60.817C1.84067 60.9637 1.59133 61.1617 1.43 61.411C1.26867 61.6603 1.188 61.9353 1.188 62.236C1.188 62.5953 1.276 62.8813 1.452 63.094C1.628 63.3067 1.859 63.4753 2.145 63.6C2.43833 63.7247 2.75733 63.8273 3.102 63.908C3.44667 63.9887 3.79133 64.0767 4.136 64.172C4.48067 64.26 4.796 64.3773 5.082 64.524C5.37533 64.6707 5.60633 64.8687 5.775 65.118C5.951 65.36 6.039 65.679 6.039 66.075C6.039 66.4197 5.94367 66.7423 5.753 67.043C5.56967 67.3437 5.27633 67.5857 4.873 67.769C4.477 67.9523 3.971 68.044 3.355 68.044ZM12.2487 68.033C11.706 68.033 11.2183 67.912 10.7857 67.67C10.3603 67.4207 10.023 67.0797 9.77367 66.647C9.53167 66.207 9.41067 65.7047 9.41067 65.14C9.41067 64.5753 9.53167 64.0767 9.77367 63.644C10.023 63.204 10.3603 62.863 10.7857 62.621C11.2183 62.3717 11.706 62.247 12.2487 62.247C12.6813 62.247 13.081 62.3313 13.4477 62.5C13.8143 62.6613 14.1187 62.9033 14.3607 63.226L14.0857 63.457C13.873 63.1563 13.6053 62.9363 13.2827 62.797C12.9673 62.6577 12.6227 62.588 12.2487 62.588C11.7793 62.588 11.3577 62.6943 10.9837 62.907C10.6097 63.1197 10.3127 63.4203 10.0927 63.809C9.88001 64.1903 9.77367 64.634 9.77367 65.14C9.77367 65.646 9.88001 66.0933 10.0927 66.482C10.3127 66.8633 10.6097 67.164 10.9837 67.384C11.3577 67.5967 11.7793 67.703 12.2487 67.703C12.6227 67.703 12.9673 67.6333 13.2827 67.494C13.6053 67.3473 13.873 67.1273 14.0857 66.834L14.3607 67.054C14.1187 67.384 13.8143 67.6297 13.4477 67.791C13.081 67.9523 12.6813 68.033 12.2487 68.033ZM18.2968 68V62.291H18.6488V63.864L18.6158 63.765C18.7698 63.2883 19.0374 62.918 19.4188 62.654C19.8074 62.3827 20.2914 62.247 20.8708 62.247V62.61C20.8561 62.61 20.8378 62.61 20.8158 62.61C20.8011 62.61 20.7864 62.61 20.7718 62.61C20.1118 62.61 19.5948 62.819 19.2208 63.237C18.8468 63.655 18.6598 64.2307 18.6598 64.964V68H18.2968ZM26.767 68.033C26.2317 68.033 25.7514 67.912 25.326 67.67C24.908 67.4207 24.5744 67.076 24.325 66.636C24.083 66.196 23.962 65.6973 23.962 65.14C23.962 64.5753 24.083 64.0767 24.325 63.644C24.5744 63.2113 24.908 62.8703 25.326 62.621C25.7514 62.3717 26.2317 62.247 26.767 62.247C27.3024 62.247 27.7827 62.3717 28.208 62.621C28.6334 62.8703 28.967 63.2113 29.209 63.644C29.451 64.0767 29.572 64.5753 29.572 65.14C29.572 65.6973 29.451 66.196 29.209 66.636C28.967 67.076 28.6334 67.4207 28.208 67.67C27.7827 67.912 27.3024 68.033 26.767 68.033ZM26.767 67.703C27.2364 67.703 27.6544 67.5967 28.021 67.384C28.395 67.164 28.6847 66.8597 28.89 66.471C29.1027 66.0823 29.209 65.6387 29.209 65.14C29.209 64.634 29.1027 64.1903 28.89 63.809C28.6847 63.4203 28.395 63.1197 28.021 62.907C27.6544 62.6943 27.2364 62.588 26.767 62.588C26.305 62.588 25.8907 62.6943 25.524 62.907C25.1574 63.1197 24.864 63.4203 24.644 63.809C24.4314 64.1903 24.325 64.634 24.325 65.14C24.325 65.6387 24.4314 66.0823 24.644 66.471C24.864 66.8597 25.1574 67.164 25.524 67.384C25.8907 67.5967 26.305 67.703 26.767 67.703ZM33.5679 68V59.838H33.9309V68H33.5679ZM38.5716 68V59.838H38.9346V68H38.5716ZM48.7445 68V60.3H51.7145C52.5359 60.3 53.2509 60.4687 53.8595 60.806C54.4682 61.136 54.9412 61.5907 55.2785 62.17C55.6232 62.742 55.7955 63.402 55.7955 64.15C55.7955 64.898 55.6232 65.5617 55.2785 66.141C54.9412 66.713 54.4682 67.1677 53.8595 67.505C53.2509 67.835 52.5359 68 51.7145 68H48.7445ZM49.1185 67.659H51.6925C52.4479 67.659 53.1042 67.5087 53.6615 67.208C54.2262 66.9073 54.6589 66.493 54.9595 65.965C55.2675 65.437 55.4215 64.832 55.4215 64.15C55.4215 63.468 55.2675 62.863 54.9595 62.335C54.6589 61.807 54.2262 61.3927 53.6615 61.092C53.1042 60.7913 52.4479 60.641 51.6925 60.641H49.1185V67.659ZM62.0014 68.033C61.4661 68.033 60.9857 67.912 60.5604 67.67C60.1424 67.4207 59.8087 67.076 59.5594 66.636C59.3174 66.196 59.1964 65.6973 59.1964 65.14C59.1964 64.5753 59.3174 64.0767 59.5594 63.644C59.8087 63.2113 60.1424 62.8703 60.5604 62.621C60.9857 62.3717 61.4661 62.247 62.0014 62.247C62.5367 62.247 63.0171 62.3717 63.4424 62.621C63.8677 62.8703 64.2014 63.2113 64.4434 63.644C64.6854 64.0767 64.8064 64.5753 64.8064 65.14C64.8064 65.6973 64.6854 66.196 64.4434 66.636C64.2014 67.076 63.8677 67.4207 63.4424 67.67C63.0171 67.912 62.5367 68.033 62.0014 68.033ZM62.0014 67.703C62.4707 67.703 62.8887 67.5967 63.2554 67.384C63.6294 67.164 63.9191 66.8597 64.1244 66.471C64.3371 66.0823 64.4434 65.6387 64.4434 65.14C64.4434 64.634 64.3371 64.1903 64.1244 63.809C63.9191 63.4203 63.6294 63.1197 63.2554 62.907C62.8887 62.6943 62.4707 62.588 62.0014 62.588C61.5394 62.588 61.1251 62.6943 60.7584 62.907C60.3917 63.1197 60.0984 63.4203 59.8784 63.809C59.6657 64.1903 59.5594 64.634 59.5594 65.14C59.5594 65.6387 59.6657 66.0823 59.8784 66.471C60.0984 66.8597 60.3917 67.164 60.7584 67.384C61.1251 67.5967 61.5394 67.703 62.0014 67.703ZM69.7301 68L67.5411 62.291H67.8931L69.9611 67.78H69.8071L71.9191 62.291H72.2491L74.3501 67.78H74.1961L76.2751 62.291H76.6271L74.4491 68H74.1081L72.0291 62.632H72.1391L70.0491 68H69.7301ZM82.8603 62.247C83.3297 62.247 83.733 62.3387 84.0703 62.522C84.415 62.7053 84.6827 62.9767 84.8733 63.336C85.064 63.688 85.1593 64.1243 85.1593 64.645V68H84.7963V64.667C84.7963 63.985 84.624 63.468 84.2793 63.116C83.9347 62.764 83.4507 62.588 82.8273 62.588C82.3507 62.588 81.94 62.6833 81.5953 62.874C81.2507 63.0647 80.9867 63.336 80.8033 63.688C80.62 64.04 80.5283 64.4507 80.5283 64.92V68H80.1653V62.291H80.5173V63.897L80.4733 63.798C80.6493 63.3213 80.939 62.9437 81.3423 62.665C81.753 62.3863 82.259 62.247 82.8603 62.247Z" fill="white"/>
<ellipse cx="44" cy="9.5" rx="2" ry="4.5" fill="black"/>
</svg>
